<mxfile host="app.diagrams.net" modified="2022-04-27T06:37:31.020Z" agent="5.0 (Windows NT 10.0; Win64; x64) AppleWebKit/537.36 (KHTML, like Gecko) Chrome/100.0.4896.127 Safari/537.36" etag="zlATqz3ztXdUZE5pa2QP" version="17.4.6" type="github">
  <diagram id="1V2nCTv8erawhyg7YVky" name="Page-1">
    <mxGraphModel dx="1422" dy="744" grid="1" gridSize="10" guides="1" tooltips="1" connect="1" arrows="1" fold="1" page="1" pageScale="1" pageWidth="850" pageHeight="1100" math="0" shadow="0">
      <root>
        <mxCell id="0" />
        <mxCell id="1" parent="0" />
        <mxCell id="9ZhkeXjtie4bxwvCP2SG-1" value="User" style="swimlane;whiteSpace=wrap" parent="1" vertex="1">
          <mxGeometry x="60" y="250" width="240" height="430" as="geometry" />
        </mxCell>
        <mxCell id="9ZhkeXjtie4bxwvCP2SG-2" style="edgeStyle=orthogonalEdgeStyle;rounded=0;orthogonalLoop=1;jettySize=auto;html=1;entryX=0.5;entryY=0;entryDx=0;entryDy=0;fontSize=13;strokeColor=#FF120A;" parent="9ZhkeXjtie4bxwvCP2SG-1" source="9ZhkeXjtie4bxwvCP2SG-3" target="9ZhkeXjtie4bxwvCP2SG-4" edge="1">
          <mxGeometry relative="1" as="geometry" />
        </mxCell>
        <mxCell id="9ZhkeXjtie4bxwvCP2SG-3" value="" style="ellipse;shape=startState;fillColor=#000000;strokeColor=#ff0000;" parent="9ZhkeXjtie4bxwvCP2SG-1" vertex="1">
          <mxGeometry x="100" y="40" width="30" height="30" as="geometry" />
        </mxCell>
        <mxCell id="9ZhkeXjtie4bxwvCP2SG-30" style="edgeStyle=orthogonalEdgeStyle;rounded=0;orthogonalLoop=1;jettySize=auto;html=1;entryX=0.5;entryY=0;entryDx=0;entryDy=0;strokeColor=#FF0000;" parent="9ZhkeXjtie4bxwvCP2SG-1" source="9ZhkeXjtie4bxwvCP2SG-4" target="9ZhkeXjtie4bxwvCP2SG-29" edge="1">
          <mxGeometry relative="1" as="geometry" />
        </mxCell>
        <mxCell id="9ZhkeXjtie4bxwvCP2SG-4" value="Recommendation Page" style="fontSize=13;fontStyle=0" parent="9ZhkeXjtie4bxwvCP2SG-1" vertex="1">
          <mxGeometry x="35" y="110" width="160" height="40" as="geometry" />
        </mxCell>
        <mxCell id="9ZhkeXjtie4bxwvCP2SG-29" value="User Search Query" style="fontSize=13;fontStyle=0" parent="9ZhkeXjtie4bxwvCP2SG-1" vertex="1">
          <mxGeometry x="35" y="240" width="160" height="40" as="geometry" />
        </mxCell>
        <mxCell id="9ZhkeXjtie4bxwvCP2SG-5" value="Recommendation Management System (RM)" style="swimlane;whiteSpace=wrap" parent="1" vertex="1">
          <mxGeometry x="300" y="250" width="420" height="430" as="geometry" />
        </mxCell>
        <mxCell id="9ZhkeXjtie4bxwvCP2SG-11" value="" style="ellipse;shape=endState;fillColor=#000000;strokeColor=#ff0000" parent="9ZhkeXjtie4bxwvCP2SG-5" vertex="1">
          <mxGeometry x="350" y="320" width="30" height="30" as="geometry" />
        </mxCell>
        <mxCell id="9ZhkeXjtie4bxwvCP2SG-32" value="Match&amp;nbsp;" style="rhombus;whiteSpace=wrap;html=1;fillColor=#ffffc0;strokeColor=#ff0000;" parent="9ZhkeXjtie4bxwvCP2SG-5" vertex="1">
          <mxGeometry x="60" y="100" width="80" height="40" as="geometry" />
        </mxCell>
        <mxCell id="9ZhkeXjtie4bxwvCP2SG-33" value="no" style="edgeStyle=orthogonalEdgeStyle;html=1;align=left;verticalAlign=bottom;endArrow=open;endSize=8;strokeColor=#ff0000;rounded=0;entryX=0.5;entryY=0;entryDx=0;entryDy=0;" parent="9ZhkeXjtie4bxwvCP2SG-5" source="9ZhkeXjtie4bxwvCP2SG-32" target="9ZhkeXjtie4bxwvCP2SG-43" edge="1">
          <mxGeometry x="-0.7143" y="10" relative="1" as="geometry">
            <mxPoint x="240" y="120" as="targetPoint" />
            <mxPoint as="offset" />
          </mxGeometry>
        </mxCell>
        <mxCell id="9ZhkeXjtie4bxwvCP2SG-34" value="yes" style="edgeStyle=orthogonalEdgeStyle;html=1;align=left;verticalAlign=top;endArrow=open;endSize=8;strokeColor=#ff0000;rounded=0;entryX=0;entryY=0.5;entryDx=0;entryDy=0;" parent="9ZhkeXjtie4bxwvCP2SG-5" source="9ZhkeXjtie4bxwvCP2SG-32" target="9ZhkeXjtie4bxwvCP2SG-36" edge="1">
          <mxGeometry x="-1" relative="1" as="geometry">
            <mxPoint x="100" y="190" as="targetPoint" />
          </mxGeometry>
        </mxCell>
        <mxCell id="9ZhkeXjtie4bxwvCP2SG-47" style="edgeStyle=orthogonalEdgeStyle;rounded=0;orthogonalLoop=1;jettySize=auto;html=1;entryX=0.5;entryY=0;entryDx=0;entryDy=0;strokeColor=#FF0000;" parent="9ZhkeXjtie4bxwvCP2SG-5" source="9ZhkeXjtie4bxwvCP2SG-36" target="9ZhkeXjtie4bxwvCP2SG-11" edge="1">
          <mxGeometry relative="1" as="geometry" />
        </mxCell>
        <mxCell id="9ZhkeXjtie4bxwvCP2SG-36" value="Pass the value to model" style="fontSize=13;fontStyle=0" parent="9ZhkeXjtie4bxwvCP2SG-5" vertex="1">
          <mxGeometry x="220" y="100" width="160" height="40" as="geometry" />
        </mxCell>
        <mxCell id="9ZhkeXjtie4bxwvCP2SG-43" value="Invalid Search" style="fontSize=13;fontStyle=0" parent="9ZhkeXjtie4bxwvCP2SG-5" vertex="1">
          <mxGeometry x="20" y="350" width="160" height="40" as="geometry" />
        </mxCell>
        <mxCell id="9ZhkeXjtie4bxwvCP2SG-35" style="edgeStyle=orthogonalEdgeStyle;rounded=0;orthogonalLoop=1;jettySize=auto;html=1;entryX=0;entryY=0.5;entryDx=0;entryDy=0;strokeColor=#FF0000;" parent="1" source="9ZhkeXjtie4bxwvCP2SG-29" target="9ZhkeXjtie4bxwvCP2SG-32" edge="1">
          <mxGeometry relative="1" as="geometry" />
        </mxCell>
        <mxCell id="9ZhkeXjtie4bxwvCP2SG-46" style="edgeStyle=orthogonalEdgeStyle;rounded=0;orthogonalLoop=1;jettySize=auto;html=1;entryX=0.5;entryY=1;entryDx=0;entryDy=0;strokeColor=#FF0000;" parent="1" source="9ZhkeXjtie4bxwvCP2SG-43" target="9ZhkeXjtie4bxwvCP2SG-29" edge="1">
          <mxGeometry relative="1" as="geometry" />
        </mxCell>
      </root>
    </mxGraphModel>
  </diagram>
</mxfile>
